<svg version="1.1" xmlns="http://www.w3.org/2000/svg" viewBox="0 0 1733 633" width="3466" height="1266">
  <!-- svg-source:excalidraw -->
  
  <defs>
    <style class="style-fonts">
      @font-face {
        font-family: "Virgil";
        src: url("https://excalidraw.com/Virgil.woff2");
      }
      @font-face {
        font-family: "Cascadia";
        src: url("https://excalidraw.com/Cascadia.woff2");
      }
      @font-face {
        font-family: "Assistant";
        src: url("https://excalidraw.com/Assistant-Regular.woff2");
      }
    </style>
    
  </defs>
  <rect x="0" y="0" width="1733" height="633" fill="#ffffff"></rect><g stroke-linecap="round" transform="translate(11 10) rotate(0 155 296)"><path d="M32 0 C82.8 -0.49, 133.8 0.77, 278 0 M32 0 C86.45 1.35, 141.51 0.17, 278 0 M278 0 C299.45 -0.57, 308.83 12.61, 310 32 M278 0 C300.23 1.69, 308.4 11.45, 310 32 M310 32 C311.87 223.89, 312.29 416.65, 310 560 M310 32 C310.83 235.56, 311.2 439.15, 310 560 M310 560 C309.99 581.45, 298.97 592.88, 278 592 M310 560 C309.06 583.02, 300.08 594.04, 278 592 M278 592 C221.99 589.89, 163.18 591.81, 32 592 M278 592 C225.84 592.55, 174.35 591.82, 32 592 M32 592 C10.08 593.63, -1.98 581.89, 0 560 M32 592 C10 591.35, 0.47 582.44, 0 560 M0 560 C0.98 381.78, 1.84 203.44, 0 32 M0 560 C0.08 417.27, 0.13 274.63, 0 32 M0 32 C-0.67 12.38, 10.94 1.23, 32 0 M0 32 C-1.27 12.21, 8.65 -1.02, 32 0" stroke="#1e1e1e" stroke-width="2" fill="none"></path></g><g transform="translate(29 32) rotate(0 111.85200500488281 22.5)"><text x="0" y="0" font-family="Virgil, Segoe UI Emoji" font-size="36px" fill="#1e1e1e" text-anchor="start" style="white-space: pre;" direction="ltr" dominant-baseline="text-before-edge">Your To-Dos</text></g><g stroke-linecap="round" transform="translate(18 482) rotate(0 149 22)"><path d="M11 0 C69.27 -2.35, 131.52 -2.56, 287 0 M11 0 C111.45 -1.55, 211.19 -0.46, 287 0 M287 0 C295.18 -0.12, 296.72 3.87, 298 11 M287 0 C292.95 0.95, 298.64 3.83, 298 11 M298 11 C299.6 18.1, 296.45 28.85, 298 33 M298 11 C297.26 16.96, 297.36 22.1, 298 33 M298 33 C297.93 38.69, 295.82 43.68, 287 44 M298 33 C296.94 40, 295.57 46.16, 287 44 M287 44 C188.78 44.97, 92.26 43.5, 11 44 M287 44 C212.79 44.51, 138.1 44.3, 11 44 M11 44 C5.33 44.08, 0.74 39.52, 0 33 M11 44 C5.46 45.75, 1.11 41.4, 0 33 M0 33 C0.36 26.37, -0.85 14.68, 0 11 M0 33 C-0.2 26.78, -0.76 19.59, 0 11 M0 11 C-0.15 5.09, 2.65 -0.95, 11 0 M0 11 C-1.56 4.04, 5.65 1.08, 11 0" stroke="#1e1e1e" stroke-width="2" fill="none"></path></g><g stroke-linecap="round" transform="translate(264 487) rotate(0 22.5 16)"><path d="M8 0 C19.2 0.2, 28.69 1.6, 37 0 M8 0 C16.47 -0.02, 23.27 0.68, 37 0 M37 0 C41.17 0.95, 44.85 4.09, 45 8 M37 0 C41.17 -1.09, 43.44 3.04, 45 8 M45 8 C44.08 13.06, 45.66 19.77, 45 24 M45 8 C45.21 12.41, 45.32 17.46, 45 24 M45 24 C45.18 28.64, 41.77 31.81, 37 32 M45 24 C46.09 27.71, 40.06 33.29, 37 32 M37 32 C31.43 29.74, 22.57 32.93, 8 32 M37 32 C28.19 32.63, 21.34 33.09, 8 32 M8 32 C4.11 32.17, 0.21 30.39, 0 24 M8 32 C1.8 33.65, -1.9 28.4, 0 24 M0 24 C-1.12 17.05, 0.83 11.09, 0 8 M0 24 C-0.31 20.48, -0.67 17.75, 0 8 M0 8 C0.24 3.77, 1.15 0.68, 8 0 M0 8 C-2.18 1.34, 1.44 1.54, 8 0" stroke="#1e1e1e" stroke-width="2" fill="none"></path></g><g transform="translate(39 496.5) rotate(0 53.672000885009766 10)"><text x="0" y="0" font-family="Virgil, Segoe UI Emoji" font-size="16px" fill="#1e1e1e" text-anchor="start" style="white-space: pre;" direction="ltr" dominant-baseline="text-before-edge">Activity Name</text></g><g stroke-linecap="round" transform="translate(273 32) rotate(0 16.5 16.5)"><path d="M15.93 -0.04 C19.35 -0.34, 24 1.47, 26.82 3.71 C29.64 5.95, 32.24 9.93, 32.86 13.39 C33.49 16.85, 32.21 21.35, 30.56 24.48 C28.91 27.61, 26.13 30.86, 22.96 32.16 C19.78 33.47, 14.83 33.49, 11.49 32.32 C8.15 31.15, 4.82 28.24, 2.9 25.15 C0.99 22.07, -0.42 17.35, 0.02 13.8 C0.45 10.24, 2.77 6.07, 5.49 3.81 C8.22 1.56, 14.28 0.83, 16.34 0.26 C18.39 -0.31, 17.75 0.17, 17.82 0.39 M19.09 -0.44 C22.58 -0.14, 27.11 2.63, 29.53 5.44 C31.96 8.26, 33.61 12.87, 33.62 16.44 C33.64 20.01, 31.96 24.24, 29.63 26.86 C27.31 29.48, 23.14 31.62, 19.69 32.16 C16.24 32.71, 12.02 31.87, 8.95 30.13 C5.87 28.39, 2.54 24.92, 1.24 21.72 C-0.06 18.53, -0.1 14.14, 1.14 10.99 C2.39 7.83, 5.66 4.51, 8.69 2.79 C11.73 1.08, 17.55 1.02, 19.36 0.7 C21.18 0.39, 19.73 0.61, 19.58 0.9" stroke="#1e1e1e" stroke-width="2" fill="none"></path></g><g stroke-linecap="round" transform="translate(10 79) rotate(0 155.5 39)"><path d="M0 0 C107.97 0.17, 212.52 0.6, 311 0 M0 0 C85.84 -1.67, 172.58 -1.93, 311 0 M311 0 C309.95 28.94, 311.19 62.98, 311 78 M311 0 C310.73 28.4, 312.19 57.85, 311 78 M311 78 C197.13 77.32, 84.65 77.15, 0 78 M311 78 C218.8 75.88, 124.89 75.33, 0 78 M0 78 C1.67 63.03, 1.28 43.38, 0 0 M0 78 C0.81 57.32, -0.2 36.84, 0 0" stroke="#1e1e1e" stroke-width="2" fill="none"></path></g><g transform="translate(27 92) rotate(0 39.65599822998047 10)"><text x="0" y="0" font-family="Virgil, Segoe UI Emoji" font-size="16px" fill="#1e1e1e" text-anchor="start" style="white-space: pre;" direction="ltr" dominant-baseline="text-before-edge">Do Taxes</text></g><g stroke-linecap="round" transform="translate(11.5 161) rotate(0 155.5 39)"><path d="M0 0 C91.36 0.38, 184.6 0.53, 311 0 M0 0 C78.33 0.59, 156.22 -0.55, 311 0 M311 0 C311.12 19.09, 311.74 40.44, 311 78 M311 0 C311.83 19.61, 310.63 37.2, 311 78 M311 78 C248.68 76.51, 184.49 78.75, 0 78 M311 78 C228.78 79.6, 146.72 80.71, 0 78 M0 78 C0.65 52.77, 1.2 30.51, 0 0 M0 78 C1.61 55.03, 0.37 33.17, 0 0" stroke="#1e1e1e" stroke-width="2" fill="none"></path></g><g transform="translate(28.5 174) rotate(0 48.6719970703125 10)"><text x="0" y="0" font-family="Virgil, Segoe UI Emoji" font-size="16px" fill="#1e1e1e" text-anchor="start" style="white-space: pre;" direction="ltr" dominant-baseline="text-before-edge">Finish FAFSA</text></g><g transform="translate(26 127) rotate(0 43.07200241088867 10)"><text x="0" y="0" font-family="Virgil, Segoe UI Emoji" font-size="16px" fill="#6741d9" text-anchor="start" style="white-space: pre;" direction="ltr" dominant-baseline="text-before-edge">1 Day Left</text></g><g transform="translate(28 209) rotate(0 31.280000686645508 10)"><text x="0" y="0" font-family="Virgil, Segoe UI Emoji" font-size="16px" fill="#c2255c" text-anchor="start" style="white-space: pre;" direction="ltr" dominant-baseline="text-before-edge">Overdue</text></g><g stroke-linecap="round" transform="translate(343 444) rotate(0 159 78)"><path d="M0 0 C75.23 -0.7, 151.71 0.38, 318 0 M0 0 C72.83 0.82, 146.04 -0.48, 318 0 M318 0 C317.83 59.76, 317.44 122.99, 318 156 M318 0 C318.14 49.37, 319.48 98.09, 318 156 M318 156 C255.65 153.9, 191.86 154.51, 0 156 M318 156 C214.17 157.9, 111.95 157.82, 0 156 M0 156 C2.06 105.4, 3.38 57.22, 0 0 M0 156 C-1.21 120.07, -0.17 85.04, 0 0" stroke="#c2255c" stroke-width="2" fill="none"></path></g><g stroke-linecap="round" transform="translate(353 545) rotate(0 149 22)"><path d="M11 0 C112.75 -0.01, 212.85 0.51, 287 0 M11 0 C88.05 -2.07, 165.36 -0.9, 287 0 M287 0 C293.6 -1.78, 298.71 1.94, 298 11 M287 0 C294.12 0.47, 295.87 5.1, 298 11 M298 11 C296.48 19.55, 296.29 23.76, 298 33 M298 11 C296.91 16, 298.08 22.93, 298 33 M298 33 C297.46 40.01, 294.9 45.58, 287 44 M298 33 C299.16 42.13, 293.66 42.99, 287 44 M287 44 C205.9 41.11, 123.12 43.12, 11 44 M287 44 C218.16 46.29, 150.16 45.32, 11 44 M11 44 C3.13 45.41, -0.49 38.65, 0 33 M11 44 C5.79 44.03, 1.96 38.38, 0 33 M0 33 C-2.02 24.51, -1.9 17.36, 0 11 M0 33 C0.02 26.1, 0.74 20.42, 0 11 M0 11 C0.72 1.76, 2.49 1.98, 11 0 M0 11 C0.72 5.83, 3.12 1.52, 11 0" stroke="#1e1e1e" stroke-width="2" fill="none"></path></g><g stroke-linecap="round" transform="translate(599 550) rotate(0 22.5 16)"><path d="M8 0 C16.16 -0.34, 22.56 -0.99, 37 0 M8 0 C18.08 0.99, 29.09 -0.67, 37 0 M37 0 C43.05 -1.73, 44.81 3.07, 45 8 M37 0 C40.2 1.43, 45.18 0.66, 45 8 M45 8 C43.68 13.16, 44.33 18.07, 45 24 M45 8 C45.09 12.5, 44.64 16.4, 45 24 M45 24 C45.56 30.91, 43.34 33.57, 37 32 M45 24 C44.33 28.33, 42.3 30.73, 37 32 M37 32 C31.58 32.75, 23 33.06, 8 32 M37 32 C24.82 31.1, 13.7 32.79, 8 32 M8 32 C2.17 30.32, 1.85 29.36, 0 24 M8 32 C4.63 30.05, 0.64 29.81, 0 24 M0 24 C-1.33 19.68, 0.21 18.48, 0 8 M0 24 C0.69 21.17, 0.26 16.34, 0 8 M0 8 C-1.18 4.65, 3.3 1.88, 8 0 M0 8 C-0.55 4.19, 4.78 -0.44, 8 0" stroke="#1e1e1e" stroke-width="2" fill="none"></path></g><g transform="translate(374 559.5) rotate(0 53.672000885009766 10)"><text x="0" y="0" font-family="Virgil, Segoe UI Emoji" font-size="16px" fill="#1e1e1e" text-anchor="start" style="white-space: pre;" direction="ltr" dominant-baseline="text-before-edge">Activity Name</text></g><g transform="translate(438 511) rotate(0 57.39200210571289 10)"><text x="0" y="0" font-family="Virgil, Segoe UI Emoji" font-size="16px" fill="#1e1e1e" text-anchor="start" style="white-space: pre;" direction="ltr" dominant-baseline="text-before-edge">Set Due Date</text></g><g stroke-linecap="round" transform="translate(354 501) rotate(0 145.5 17.5)"><path d="M8.75 0 C94.08 -0.58, 175.76 -0.35, 282.25 0 M8.75 0 C92.41 1.24, 176.08 2.1, 282.25 0 M282.25 0 C288.34 -1.81, 289.84 1.07, 291 8.75 M282.25 0 C289.66 1.64, 289.06 1.62, 291 8.75 M291 8.75 C289.23 14.62, 291.66 15.82, 291 26.25 M291 8.75 C290.55 14.33, 291.84 18.77, 291 26.25 M291 26.25 C289.57 30.67, 289.49 33.46, 282.25 35 M291 26.25 C293.14 32.16, 288.84 34.86, 282.25 35 M282.25 35 C203.36 36.61, 119.84 37.3, 8.75 35 M282.25 35 C204.79 34.31, 128.98 34.68, 8.75 35 M8.75 35 C2.41 35.5, -1.79 31.34, 0 26.25 M8.75 35 C1.99 33.97, 1.21 31.6, 0 26.25 M0 26.25 C0.06 19.15, -0.46 13.83, 0 8.75 M0 26.25 C0.21 22.6, 0.49 18.18, 0 8.75 M0 8.75 C0.27 1.12, 4.47 -1.64, 8.75 0 M0 8.75 C2.25 4.93, 2.37 -1.84, 8.75 0" stroke="#1e1e1e" stroke-width="2" fill="none"></path></g><g stroke-linecap="round" transform="translate(699 11) rotate(0 155 296)"><path d="M32 0 C95.74 0.71, 156.55 -0.29, 278 0 M32 0 C82 -1.85, 132.28 -1.48, 278 0 M278 0 C297.52 0.8, 311.27 12.5, 310 32 M278 0 C300.72 0.38, 308.03 11.49, 310 32 M310 32 C309.45 201.04, 308.91 369.15, 310 560 M310 32 C308.83 218.74, 309.06 405.44, 310 560 M310 560 C311.69 580.28, 299.76 590.02, 278 592 M310 560 C309.52 583.18, 299.97 591.55, 278 592 M278 592 C195.29 590.83, 113.22 591.18, 32 592 M278 592 C212.47 593.32, 146.08 592.09, 32 592 M32 592 C10.81 590.17, -1.44 580.93, 0 560 M32 592 C11.12 592.78, 1.84 579.42, 0 560 M0 560 C-1.53 392.79, -1.17 223.48, 0 32 M0 560 C-0.76 420.42, -0.74 280.38, 0 32 M0 32 C0.84 10.68, 12.66 0.91, 32 0 M0 32 C-1.32 10.48, 12.22 0.38, 32 0" stroke="#1e1e1e" stroke-width="2" fill="none"></path></g><g stroke-linecap="round" transform="translate(710 102) rotate(0 71 60.5)"><path d="M30.25 0 C54.68 -1.94, 76.26 0.78, 111.75 0 M30.25 0 C62.78 -1.47, 95.1 -0.53, 111.75 0 M111.75 0 C132.54 -1.07, 143.07 9.13, 142 30.25 M111.75 0 C131.7 0.97, 142.02 12.37, 142 30.25 M142 30.25 C143 51.48, 143.62 70.22, 142 90.75 M142 30.25 C142.81 43.79, 142.83 58.5, 142 90.75 M142 90.75 C141 111.78, 133.36 121.12, 111.75 121 M142 90.75 C142.74 109.18, 131.77 119.23, 111.75 121 M111.75 121 C89.7 120.78, 68.8 120.74, 30.25 121 M111.75 121 C88.63 121.67, 63.77 121.95, 30.25 121 M30.25 121 C9.09 121.08, 1.73 110.95, 0 90.75 M30.25 121 C10.81 119.33, 0.75 109.04, 0 90.75 M0 90.75 C-1.67 76.86, -0.06 65.78, 0 30.25 M0 90.75 C1.24 67.69, 0.5 43.64, 0 30.25 M0 30.25 C0.01 9.9, 9.78 -0.74, 30.25 0 M0 30.25 C-1 8.43, 10.63 -2.15, 30.25 0" stroke="#1e1e1e" stroke-width="2" fill="none"></path></g><g transform="translate(718.1479949951172 39.5) rotate(0 72.27000427246094 22.5)"><text x="0" y="0" font-family="Virgil, Segoe UI Emoji" font-size="36px" fill="#1e1e1e" text-anchor="start" style="white-space: pre;" direction="ltr" dominant-baseline="text-before-edge">Settings</text></g><g stroke-linecap="round" transform="translate(21 554) rotate(0 49.5 21)"><path d="M10.5 0 C28.46 -0.4, 45.57 -2.49, 88.5 0 M10.5 0 C33.34 1.65, 58.99 -0.06, 88.5 0 M88.5 0 C93.77 -1.56, 98.83 2.88, 99 10.5 M88.5 0 C95.77 2.25, 99.49 5.18, 99 10.5 M99 10.5 C99.44 18.65, 100.23 23.53, 99 31.5 M99 10.5 C98.2 19.18, 99.68 26.27, 99 31.5 M99 31.5 C99.43 37.76, 95.36 40.8, 88.5 42 M99 31.5 C97.69 38.82, 93.46 42.05, 88.5 42 M88.5 42 C71.29 43.33, 53.31 41, 10.5 42 M88.5 42 C69.24 41.59, 50.8 41.58, 10.5 42 M10.5 42 C5.35 40.36, 0.52 37.83, 0 31.5 M10.5 42 C5.46 41.22, -0.46 37.54, 0 31.5 M0 31.5 C-1.35 24.45, 0.06 22.58, 0 10.5 M0 31.5 C-0.12 24.63, -1.02 17.27, 0 10.5 M0 10.5 C0.59 3.86, 3.55 1.12, 10.5 0 M0 10.5 C-1.93 1.83, 1.9 -0.68, 10.5 0" stroke="#1e1e1e" stroke-width="2" fill="none"></path></g><g stroke-linecap="round" transform="translate(124 556) rotate(0 45 20)"><path d="M10 0 C36.13 -0.76, 65.65 1.99, 80 0 M10 0 C27.81 0.18, 44.11 -0.05, 80 0 M80 0 C86.55 -0.05, 88.08 2.27, 90 10 M80 0 C87.34 0.42, 90.05 4.62, 90 10 M90 10 C89.26 13.78, 88.66 17.52, 90 30 M90 10 C90.51 16.21, 90.7 24.51, 90 30 M90 30 C91.88 37.53, 87.35 38.17, 80 40 M90 30 C91.93 36.86, 87.42 38.27, 80 40 M80 40 C55.7 41.38, 27.48 39.89, 10 40 M80 40 C64.56 39.65, 47.68 40.57, 10 40 M10 40 C2.24 38.55, 0.5 37.91, 0 30 M10 40 C1.96 40.26, 0.37 35.85, 0 30 M0 30 C1.14 24.98, 0.87 15.81, 0 10 M0 30 C0.46 25.77, -0.06 21.49, 0 10 M0 10 C1.89 4.48, 4.75 0.01, 10 0 M0 10 C2.28 5.49, 1.5 -2.11, 10 0" stroke="#1e1e1e" stroke-width="2" fill="none"></path></g><g stroke-linecap="round" transform="translate(223 551) rotate(0 43 25)"><path d="M12.5 0 C29.8 0.12, 43.91 -2.29, 73.5 0 M12.5 0 C32.56 1.07, 51.51 0.56, 73.5 0 M73.5 0 C82.16 -0.71, 86.22 5.5, 86 12.5 M73.5 0 C79.89 1.46, 87.37 5.32, 86 12.5 M86 12.5 C87.74 18.68, 86.02 22.95, 86 37.5 M86 12.5 C86.94 20.45, 87.23 29.34, 86 37.5 M86 37.5 C84.4 44, 82.64 49.7, 73.5 50 M86 37.5 C86.79 45.42, 80.65 48.22, 73.5 50 M73.5 50 C53.37 50.51, 37.74 50.68, 12.5 50 M73.5 50 C59.28 48.98, 44.45 49.04, 12.5 50 M12.5 50 C3.52 49.88, -0.84 46.32, 0 37.5 M12.5 50 C5.79 51.47, -1.18 46.64, 0 37.5 M0 37.5 C0.83 30.53, 0.8 26.36, 0 12.5 M0 37.5 C0.44 26.91, 0.4 17.65, 0 12.5 M0 12.5 C-1.6 4.82, 5.32 0.91, 12.5 0 M0 12.5 C0.26 4.41, 4.1 0.49, 12.5 0" stroke="#1e1e1e" stroke-width="2" fill="none"></path></g><g transform="translate(233.87999725341797 566) rotate(0 32.12000274658203 10)"><text x="32.12000274658203" y="0" font-family="Virgil, Segoe UI Emoji" font-size="16px" fill="#1e1e1e" text-anchor="middle" style="white-space: pre;" direction="ltr" dominant-baseline="text-before-edge">Settings</text></g><g transform="translate(38 565) rotate(0 29.168001174926758 10)"><text x="0" y="0" font-family="Virgil, Segoe UI Emoji" font-size="16px" fill="#1e1e1e" text-anchor="start" style="white-space: pre;" direction="ltr" dominant-baseline="text-before-edge">To-Dos</text></g><g transform="translate(137 567) rotate(0 36.07200241088867 10)"><text x="0" y="0" font-family="Virgil, Segoe UI Emoji" font-size="16px" fill="#1e1e1e" text-anchor="start" style="white-space: pre;" direction="ltr" dominant-baseline="text-before-edge">Pomodoro</text></g><g transform="translate(714 151.28494995603342) rotate(0 66.15679931640625 36.857525021983264)"><text x="0" y="0" font-family="Virgil, Segoe UI Emoji" font-size="19.65734667839108px" fill="#1e1e1e" text-anchor="start" style="white-space: pre;" direction="ltr" dominant-baseline="text-before-edge">$40.00</text><text x="0" y="24.57168334798885" font-family="Virgil, Segoe UI Emoji" font-size="19.65734667839108px" fill="#1e1e1e" text-anchor="start" style="white-space: pre;" direction="ltr" dominant-baseline="text-before-edge">of your money</text><text x="0" y="49.1433666959777" font-family="Virgil, Segoe UI Emoji" font-size="19.65734667839108px" fill="#1e1e1e" text-anchor="start" style="white-space: pre;" direction="ltr" dominant-baseline="text-before-edge">    spent</text></g><g stroke-linecap="round" transform="translate(859 103.5) rotate(0 71 60.5)"><path d="M30.25 0 C57.15 2.34, 81.41 1.73, 111.75 0 M30.25 0 C49.43 -0.23, 66.69 1.29, 111.75 0 M111.75 0 C132.51 0.85, 143.41 11.76, 142 30.25 M111.75 0 C132.56 -1.82, 142.09 11.87, 142 30.25 M142 30.25 C142.63 52.64, 142.88 78.15, 142 90.75 M142 30.25 C142.32 46.32, 142.85 64.51, 142 90.75 M142 90.75 C143.14 112.24, 133.05 122.77, 111.75 121 M142 90.75 C143.22 109.77, 130.69 119.2, 111.75 121 M111.75 121 C81.77 120.96, 55.25 119.34, 30.25 121 M111.75 121 C82.44 121.28, 53.06 122.06, 30.25 121 M30.25 121 C9.96 120.84, 0.89 111.02, 0 90.75 M30.25 121 C8.93 120.32, 2.04 112.69, 0 90.75 M0 90.75 C-1.95 71.16, 0.62 54.77, 0 30.25 M0 90.75 C0.86 67.76, -0.92 45.14, 0 30.25 M0 30.25 C-0.49 8.39, 8.74 0.96, 30.25 0 M0 30.25 C-1.34 7.93, 10.91 1.61, 30.25 0" stroke="#1e1e1e" stroke-width="2" fill="none"></path></g><g transform="translate(868 146.78494995603342) rotate(0 64.01414489746094 36.857525021983264)"><text x="0" y="0" font-family="Virgil, Segoe UI Emoji" font-size="19.65734667839108px" fill="#1e1e1e" text-anchor="start" style="white-space: pre;" direction="ltr" dominant-baseline="text-before-edge">31 tasks</text><text x="0" y="24.57168334798885" font-family="Virgil, Segoe UI Emoji" font-size="19.65734667839108px" fill="#1e1e1e" text-anchor="start" style="white-space: pre;" direction="ltr" dominant-baseline="text-before-edge">due tomorrow</text><text x="0" y="49.1433666959777" font-family="Virgil, Segoe UI Emoji" font-size="19.65734667839108px" fill="#1e1e1e" text-anchor="start" style="white-space: pre;" direction="ltr" dominant-baseline="text-before-edge">or overdue</text></g><g transform="translate(717 240.5) rotate(0 137.27343392276464 22.055501376275657)"><text x="0" y="0" font-family="Virgil, Segoe UI Emoji" font-size="17.644401101020527px" fill="#1e1e1e" text-anchor="start" style="white-space: pre;" direction="ltr" dominant-baseline="text-before-edge">ruh roh, you better start doing</text><text x="0" y="22.055501376275657" font-family="Virgil, Segoe UI Emoji" font-size="17.644401101020527px" fill="#1e1e1e" text-anchor="start" style="white-space: pre;" direction="ltr" dominant-baseline="text-before-edge"> your work!!!</text></g><g stroke-linecap="round" transform="translate(1070 18) rotate(0 155 296)"><path d="M32 0 C110.05 -2.63, 189.47 -2.84, 278 0 M32 0 C96.27 -1.85, 160.29 -0.88, 278 0 M278 0 C299.83 1.67, 308.29 10.14, 310 32 M278 0 C299.01 -0.91, 308.96 8.87, 310 32 M310 32 C311.43 224.29, 312.17 417.09, 310 560 M310 32 C311.42 176.21, 311.49 320.06, 310 560 M310 560 C308.77 580.18, 301.23 591.69, 278 592 M310 560 C307.8 580.5, 297.72 592.16, 278 592 M278 592 C206.13 592.62, 133.82 593.45, 32 592 M278 592 C222.91 592.87, 168.38 592.76, 32 592 M32 592 C11.74 592.45, -0.77 580.58, 0 560 M32 592 C10.42 591.64, -1.76 579.86, 0 560 M0 560 C0.32 377.58, 1.02 195.09, 0 32 M0 560 C-1.2 444.19, -1.32 328.62, 0 32 M0 32 C-0.17 8.89, 10.1 1.85, 32 0 M0 32 C-0.18 12.85, 9.32 1.37, 32 0" stroke="#1e1e1e" stroke-width="2" fill="none"></path></g><g transform="translate(1089.1479949951172 46.5) rotate(0 134.91201782226562 18.982440734221797)"><text x="0" y="0" font-family="Virgil, Segoe UI Emoji" font-size="30.371905174754882px" fill="#1e1e1e" text-anchor="start" style="white-space: pre;" direction="ltr" dominant-baseline="text-before-edge">beg for your life...</text></g><g stroke-linecap="round" transform="translate(1080 237) rotate(0 138.5 79)"><path d="M32 0 C112.41 0.02, 194.5 0.43, 245 0 M32 0 C79.21 0.7, 127.51 1.26, 245 0 M245 0 C264.81 -1.85, 276.05 12.17, 277 32 M245 0 C267.75 -1.6, 275.95 12.58, 277 32 M277 32 C278.67 54.42, 279.24 72.02, 277 126 M277 32 C276.52 61.04, 278.34 91.62, 277 126 M277 126 C278.67 148.25, 266.18 159.47, 245 158 M277 126 C275.45 148.63, 264.95 157.25, 245 158 M245 158 C186.63 159.46, 130.45 159.77, 32 158 M245 158 C197.94 160.28, 152.3 159.66, 32 158 M32 158 C9.74 159.57, -1.92 147.42, 0 126 M32 158 C10.52 160.2, -0.7 146.37, 0 126 M0 126 C0.11 102.87, 1.05 80.04, 0 32 M0 126 C-0.5 99.5, -0.35 74.01, 0 32 M0 32 C-1.37 12.14, 8.83 -1.07, 32 0 M0 32 C-1.21 11.26, 10.37 -1.73, 32 0" stroke="#1e1e1e" stroke-width="2" fill="none"></path></g><g transform="translate(1085 166) rotate(0 128.88800048828125 30)"><text x="0" y="0" font-family="Virgil, Segoe UI Emoji" font-size="16px" fill="#1e1e1e" text-anchor="start" style="white-space: pre;" direction="ltr" dominant-baseline="text-before-edge">let the genie decide your fate! </text><text x="0" y="20" font-family="Virgil, Segoe UI Emoji" font-size="16px" fill="#1e1e1e" text-anchor="start" style="white-space: pre;" direction="ltr" dominant-baseline="text-before-edge">make a really good explanation...</text><text x="0" y="40" font-family="Virgil, Segoe UI Emoji" font-size="16px" fill="#1e1e1e" text-anchor="start" style="white-space: pre;" direction="ltr" dominant-baseline="text-before-edge">or else you'll die :)</text></g><g transform="translate(1085 92) rotate(0 118.51200103759766 20)"><text x="0" y="0" font-family="Virgil, Segoe UI Emoji" font-size="16px" fill="#1e1e1e" text-anchor="start" style="white-space: pre;" direction="ltr" dominant-baseline="text-before-edge">task: complete the paper for </text><text x="0" y="20" font-family="Virgil, Segoe UI Emoji" font-size="16px" fill="#1e1e1e" text-anchor="start" style="white-space: pre;" direction="ltr" dominant-baseline="text-before-edge">urbanization class</text></g><g transform="translate(1088 138) rotate(0 37.58399963378906 10)"><text x="0" y="0" font-family="Virgil, Segoe UI Emoji" font-size="16px" fill="#e03131" text-anchor="start" style="white-space: pre;" direction="ltr" dominant-baseline="text-before-edge">1 day ago</text></g><g stroke-linecap="round" transform="translate(1089 411) rotate(0 133 21.5)"><path d="M10.75 0 C102.76 2.29, 193.39 0.26, 255.25 0 M10.75 0 C91.05 -0.98, 173.18 -1.63, 255.25 0 M255.25 0 C260.89 0.14, 267.17 3.04, 266 10.75 M255.25 0 C262.27 1.52, 267.73 4.49, 266 10.75 M266 10.75 C264.22 18.81, 264.6 23.85, 266 32.25 M266 10.75 C266.08 18.02, 266.06 27.16, 266 32.25 M266 32.25 C267.22 41.06, 260.57 41.21, 255.25 43 M266 32.25 C267.32 38.91, 260.66 43.34, 255.25 43 M255.25 43 C196.28 43.72, 134.05 44.02, 10.75 43 M255.25 43 C162.39 43.68, 68.49 42.89, 10.75 43 M10.75 43 C3.37 43.86, 1.44 39.58, 0 32.25 M10.75 43 C5.79 41.56, 0.46 37.35, 0 32.25 M0 32.25 C0.54 28.58, 0.22 20.02, 0 10.75 M0 32.25 C0.66 26.91, -0.62 23.16, 0 10.75 M0 10.75 C-0.06 3.57, 2.04 1.51, 10.75 0 M0 10.75 C-1.79 4.61, 5.37 0.17, 10.75 0" stroke="#6741d9" stroke-width="2" fill="none"></path></g><g transform="translate(1122 423) rotate(0 58.55999755859375 10)"><text x="0" y="0" font-family="Virgil, Segoe UI Emoji" font-size="16px" fill="#6741d9" text-anchor="start" style="white-space: pre;" direction="ltr" dominant-baseline="text-before-edge">decide my fate</text></g><g stroke-linecap="round" transform="translate(359 458) rotate(0 93 17.5)"><path d="M0 0 C37.77 -0.52, 74.67 -1.32, 186 0 M0 0 C52.23 1.33, 106.15 2.37, 186 0 M186 0 C184.37 15.94, 184.27 28.91, 186 35 M186 0 C186.91 8.46, 185.57 18.13, 186 35 M186 35 C126.56 32.56, 69.36 32.97, 0 35 M186 35 C144.86 35.44, 103.88 35.25, 0 35 M0 35 C0.75 25.95, -1.07 16.88, 0 0 M0 35 C-0.28 23.62, 1.09 11.83, 0 0" stroke="#6741d9" stroke-width="2" fill="none"></path></g><g transform="translate(418 466) rotate(0 33.880001068115234 10)"><text x="0" y="0" font-family="Virgil, Segoe UI Emoji" font-size="16px" fill="#6741d9" text-anchor="start" style="white-space: pre;" direction="ltr" dominant-baseline="text-before-edge">category</text></g><g stroke-linecap="round" transform="translate(1413 31) rotate(0 155 296)"><path d="M32 0 C97.51 -2.1, 167.61 -0.3, 278 0 M32 0 C98.39 2.29, 166.42 2.43, 278 0 M278 0 C297.64 -0.95, 309.72 10.03, 310 32 M278 0 C299.72 -1.15, 308.15 12.6, 310 32 M310 32 C311.29 222.53, 311.78 414.07, 310 560 M310 32 C311.52 197.99, 311.7 364.33, 310 560 M310 560 C311.71 582.11, 298.84 593.47, 278 592 M310 560 C310.05 579.4, 298.38 592, 278 592 M278 592 C228.05 590.11, 177.12 590.32, 32 592 M278 592 C226.13 592.24, 175.01 593.06, 32 592 M32 592 C12.29 592.05, -0.87 582.71, 0 560 M32 592 C10.53 589.99, -1.41 583.51, 0 560 M0 560 C-2.18 443.25, -2.08 326.59, 0 32 M0 560 C-0.22 449.57, 0.15 339.97, 0 32 M0 32 C0.44 9.73, 11.23 1.54, 32 0 M0 32 C-0.93 11.5, 12.64 2.22, 32 0" stroke="#1e1e1e" stroke-width="2" fill="none"></path></g><g transform="translate(1484.1479949951172 55.5) rotate(0 65.9222183227539 18.982440734221797)"><text x="0" y="0" font-family="Virgil, Segoe UI Emoji" font-size="30.371905174754882px" fill="#1e1e1e" text-anchor="start" style="white-space: pre;" direction="ltr" dominant-baseline="text-before-edge">pomodoro</text></g><g stroke-linecap="round" transform="translate(1492 250) rotate(0 76 76)"><path d="M95.02 3.17 C105.21 4.79, 116.35 10.58, 124.71 17.62 C133.06 24.66, 140.76 35.36, 145.17 45.4 C149.58 55.45, 151.51 66.84, 151.17 77.89 C150.83 88.94, 148.25 101.77, 143.11 111.7 C137.96 121.63, 129.04 130.81, 120.3 137.47 C111.56 144.13, 101.23 149.74, 90.66 151.64 C80.09 153.55, 67.45 151.98, 56.88 148.91 C46.31 145.84, 35.5 140.17, 27.24 133.22 C18.97 126.27, 11.71 117.07, 7.3 107.21 C2.89 97.34, 0.7 85.26, 0.79 74.02 C0.87 62.77, 2.83 49.65, 7.81 39.74 C12.79 29.83, 21.76 21.02, 30.65 14.55 C39.54 8.08, 49 2.4, 61.15 0.92 C73.29 -0.57, 95.41 4.22, 103.53 5.64 C111.65 7.06, 110.23 8.37, 109.87 9.42 M102.59 5.09 C112.61 8.01, 123.56 16.71, 131.04 24.63 C138.52 32.55, 144.15 42.02, 147.47 52.61 C150.79 63.2, 152.15 76.97, 150.96 88.17 C149.76 99.38, 146.58 110.88, 140.3 119.82 C134.02 128.75, 123.01 136.61, 113.26 141.78 C103.51 146.94, 92.46 149.91, 81.82 150.8 C71.18 151.69, 59.82 151.02, 49.41 147.11 C38.99 143.2, 26.78 135.29, 19.32 127.33 C11.86 119.37, 7.72 109.72, 4.63 99.36 C1.54 88.99, -0.81 75.93, 0.78 65.14 C2.36 54.34, 7.83 43.64, 14.13 34.58 C20.42 25.52, 29.21 16.41, 38.54 10.79 C47.87 5.16, 59.4 1.89, 70.09 0.84 C80.79 -0.21, 97.21 3.76, 102.73 4.48 C108.24 5.19, 103.31 3.8, 103.19 5.12" stroke="#6741d9" stroke-width="2" fill="none"></path></g><g transform="translate(1520 303.5) rotate(0 51.76799774169922 22.5)"><text x="0" y="0" font-family="Virgil, Segoe UI Emoji" font-size="36px" fill="#6741d9" text-anchor="start" style="white-space: pre;" direction="ltr" dominant-baseline="text-before-edge">45:00</text></g><g stroke-linecap="round" transform="translate(1546 419) rotate(0 25 25)"><path d="M36.29 3.42 C40.81 5.31, 44.9 9.74, 47.05 14.68 C49.21 19.61, 50.66 27.79, 49.21 33.02 C47.75 38.25, 42.99 43.24, 38.32 46.06 C33.66 48.87, 26.32 50.47, 21.2 49.89 C16.09 49.3, 11.2 46.47, 7.63 42.54 C4.06 38.6, 0.24 31.64, -0.22 26.27 C-0.68 20.9, 1.71 14.54, 4.89 10.32 C8.07 6.09, 13.28 2.19, 18.85 0.92 C24.42 -0.35, 35.09 2.11, 38.3 2.72 C41.5 3.33, 38.49 4.03, 38.06 4.59 M30.62 0.43 C35.68 1.53, 43.62 7.32, 46.81 11.62 C50 15.92, 50.48 20.89, 49.78 26.24 C49.08 31.6, 46.52 39.57, 42.58 43.74 C38.64 47.9, 31.26 51.02, 26.14 51.22 C21.01 51.42, 16.05 48.42, 11.83 44.93 C7.61 41.45, 2.19 35.3, 0.81 30.33 C-0.57 25.35, 1.28 19.87, 3.56 15.08 C5.85 10.3, 9.68 3.9, 14.53 1.6 C19.37 -0.7, 29.61 1.54, 32.64 1.27 C35.67 1.01, 32.87 -0.15, 32.72 0" stroke="none" stroke-width="0" fill="#d0bfff"></path><path d="M31.98 0.34 C37.14 1.35, 43.48 6.05, 46.56 10.7 C49.64 15.35, 51.15 22.85, 50.46 28.24 C49.78 33.63, 46.55 39.49, 42.46 43.03 C38.37 46.56, 31.14 48.94, 25.92 49.45 C20.69 49.96, 15.28 49.22, 11.11 46.08 C6.93 42.94, 2.21 36.08, 0.85 30.61 C-0.51 25.14, 0.57 18.18, 2.94 13.29 C5.31 8.39, 10.1 3.17, 15.09 1.26 C20.08 -0.66, 29.56 1.65, 32.89 1.81 C36.22 1.96, 35.19 1.84, 35.05 2.19 M30.96 -0.19 C35.93 1.29, 42.66 7.13, 45.65 12.06 C48.65 16.99, 49.3 24.26, 48.92 29.4 C48.55 34.54, 47.41 39.27, 43.4 42.9 C39.4 46.53, 30.48 50.71, 24.9 51.17 C19.32 51.64, 14.08 48.92, 9.9 45.7 C5.72 42.49, 0.87 37.34, -0.17 31.88 C-1.21 26.42, 1.03 17.69, 3.66 12.95 C6.29 8.2, 10.75 5.34, 15.59 3.41 C20.43 1.48, 29.87 1.65, 32.7 1.36 C35.54 1.06, 33.04 1.49, 32.61 1.65" stroke="#6741d9" stroke-width="2" fill="none"></path></g><g transform="translate(1494.1938813153436 206.29411764705884) rotate(0 83.03199768066418 10)"><text x="0" y="0" font-family="Virgil, Segoe UI Emoji" font-size="16px" fill="#1e1e1e" text-anchor="start" style="white-space: pre;" direction="ltr" dominant-baseline="text-before-edge">task: practice guitar</text></g><g transform="translate(1440.7821166094611 106.88235294117646) rotate(0 76.39200592041016 20)"><text x="0" y="0" font-family="Virgil, Segoe UI Emoji" font-size="16px" fill="#e03131" text-anchor="start" style="white-space: pre;" direction="ltr" dominant-baseline="text-before-edge">overdue 1 day ago</text><text x="0" y="20" font-family="Virgil, Segoe UI Emoji" font-size="16px" fill="#e03131" text-anchor="start" style="white-space: pre;" direction="ltr" dominant-baseline="text-before-edge">total time: 4 hours</text></g><g stroke-linecap="round" transform="translate(555 458) rotate(0 43.5 18.5)"><path d="M0 0 C23.21 0.92, 46.95 0.15, 87 0 M0 0 C34.3 -0.34, 70.04 0.45, 87 0 M87 0 C87.28 12.62, 87.92 23.55, 87 37 M87 0 C87.59 7.35, 86.56 16.11, 87 37 M87 37 C55.9 39.09, 30.27 35.79, 0 37 M87 37 C56.68 37.25, 27.83 38.04, 0 37 M0 37 C0.26 25.91, 1.22 14.57, 0 0 M0 37 C0.23 29.9, -0.31 22.62, 0 0" stroke="#6741d9" stroke-width="2" fill="none"></path></g><g transform="translate(574 468.5) rotate(0 25.992000579833984 10)"><text x="0" y="0" font-family="Virgil, Segoe UI Emoji" font-size="16px" fill="#6741d9" text-anchor="start" style="white-space: pre;" direction="ltr" dominant-baseline="text-before-edge">repeat</text></g><g stroke-linecap="round"><g transform="translate(1476 75) rotate(0 -16 0)"><path d="M0 0 C-12.72 -0.18, -24.76 0.37, -32 0 M0 0 C-6.68 0.17, -13.41 -0.16, -32 0" stroke="#6741d9" stroke-width="2" fill="none"></path></g><g transform="translate(1476 75) rotate(0 -16 0)"><path d="M-16.98 -5.51 C-23.11 -3.54, -28.72 -1, -32 0 M-16.98 -5.51 C-20.09 -4.22, -23.21 -3.3, -32 0" stroke="#6741d9" stroke-width="2" fill="none"></path></g><g transform="translate(1476 75) rotate(0 -16 0)"><path d="M-16.95 5.43 C-23.13 3.24, -28.74 1.61, -32 0 M-16.95 5.43 C-20.01 4.39, -23.14 2.96, -32 0" stroke="#6741d9" stroke-width="2" fill="none"></path></g></g><mask></mask></svg>